# xmcd
#
# Track frame offsets: 
#        150
#        15677
#        27980
#        41342
#        54042
#        67080
#        81435
#        95070
#        110602
#        124695
#        138540
#        151037
#        165107
#        179477
#        194027
#
# Disc length: 2765 seconds
#
# Revision: 0
# Processed by: cddbd v1.4PL0 Copyright (c) Steve Scherf et al.
# Submitted via: ExactAudioCopy v0.90b4
#
DISCID=c60acb0f
DTITLE=Grayson and Whitter - Recorded 1928-1930
DYEAR=1998
DGENRE=Folk
TTITLE0=I've Always Been A Rambler
TTITLE1=Handsome Molly
TTITLE2=I Saw a Man At The Close Of Day
TTITLE3=Going Down The Lee Highway
TTITLE4=Never Be As Fast As I Have Been
TTITLE5=Ommie Wise
TTITLE6=On The Banks Of The Old Tennessee
TTITLE7=Rose Conley
TTITLE8=Train Forty-Five
TTITLE9=I'll Never Be Yours
TTITLE10=Short Life Of Trouble
TTITLE11=Old Jimmie Sutton
TTITLE12=Tom Dooley
TTITLE13=A Dark Road Is A Hard Road To Travel
TTITLE14=He Is Coming To Us Dead
EXTD=
EXTT0=
EXTT1=
EXTT2=
EXTT3=
EXTT4=
EXTT5=
EXTT6=
EXTT7=
EXTT8=
EXTT9=
EXTT10=
EXTT11=
EXTT12=
EXTT13=
EXTT14=
PLAYORDER=
